<mxfile host="app.diagrams.net" modified="2023-10-08T08:29:13.868Z" agent="Mozilla/5.0 (Windows NT 10.0; Win64; x64) AppleWebKit/537.36 (KHTML, like Gecko) Chrome/117.0.0.0 Safari/537.36" etag="oHQvYgwKlyHSJjtvnKOr" version="21.7.5" type="github">
  <diagram name="第 1 页" id="szRdCEjX_GXWZFQwOadY">
    <mxGraphModel dx="1434" dy="758" grid="1" gridSize="10" guides="1" tooltips="1" connect="1" arrows="1" fold="1" page="1" pageScale="1" pageWidth="827" pageHeight="1169" math="0" shadow="0">
      <root>
        <mxCell id="0" />
        <mxCell id="1" parent="0" />
        <mxCell id="bcdwuDUOWS3jVA8qfx00-1" value="" style="rounded=0;whiteSpace=wrap;html=1;" vertex="1" parent="1">
          <mxGeometry x="60" y="130" width="700" height="420" as="geometry" />
        </mxCell>
        <mxCell id="bcdwuDUOWS3jVA8qfx00-4" value="&lt;h1&gt;小白追币主项目&lt;/h1&gt;&lt;p&gt;vue技术栈，负责请求处理数据。&lt;/p&gt;&lt;p&gt;使用iframe方式嵌入来源去向图。&lt;/p&gt;" style="text;html=1;strokeColor=none;fillColor=none;spacing=5;spacingTop=-20;whiteSpace=wrap;overflow=hidden;rounded=0;" vertex="1" parent="1">
          <mxGeometry x="70" y="140" width="190" height="120" as="geometry" />
        </mxCell>
        <mxCell id="bcdwuDUOWS3jVA8qfx00-5" value="" style="rounded=0;whiteSpace=wrap;html=1;gradientColor=none;fillColor=default;" vertex="1" parent="1">
          <mxGeometry x="130" y="240" width="620" height="300" as="geometry" />
        </mxCell>
        <mxCell id="bcdwuDUOWS3jVA8qfx00-6" value="&lt;h1&gt;来源去向图&lt;/h1&gt;&lt;p&gt;react、antd design charts实现。&lt;/p&gt;&lt;p&gt;负责接受数据然后渲染图形。&lt;/p&gt;" style="text;html=1;strokeColor=none;fillColor=none;spacing=5;spacingTop=-20;whiteSpace=wrap;overflow=hidden;rounded=0;" vertex="1" parent="1">
          <mxGeometry x="530" y="240" width="190" height="120" as="geometry" />
        </mxCell>
        <mxCell id="bcdwuDUOWS3jVA8qfx00-7" value="" style="html=1;shadow=0;dashed=0;align=center;verticalAlign=middle;shape=mxgraph.arrows2.arrow;dy=0.6;dx=40;direction=north;notch=0;" vertex="1" parent="1">
          <mxGeometry x="450" y="170" width="50" height="200" as="geometry" />
        </mxCell>
        <mxCell id="bcdwuDUOWS3jVA8qfx00-8" value="" style="html=1;shadow=0;dashed=0;align=center;verticalAlign=middle;shape=mxgraph.arrows2.arrow;dy=0.6;dx=40;direction=south;notch=0;" vertex="1" parent="1">
          <mxGeometry x="350" y="170" width="30" height="170" as="geometry" />
        </mxCell>
        <mxCell id="bcdwuDUOWS3jVA8qfx00-13" value="通过postmessage方式通信" style="text;html=1;strokeColor=none;fillColor=none;align=center;verticalAlign=middle;whiteSpace=wrap;rounded=0;" vertex="1" parent="1">
          <mxGeometry x="384" y="250" width="66" height="30" as="geometry" />
        </mxCell>
      </root>
    </mxGraphModel>
  </diagram>
</mxfile>
